<svg width="1280" height="254" viewBox="0 0 1280 254" fill="none" xmlns="http://www.w3.org/2000/svg">
<path fill-rule="evenodd" clip-rule="evenodd" d="M370.182 153.529C372.016 154.646 373.819 155.185 374.665 154.965C376.787 154.412 376.982 146.573 375.341 143.483C373.699 140.393 365.258 139.046 364.833 145.169C364.685 147.294 365.569 149.19 366.874 150.738L364.533 161.756H371.333L370.182 153.529Z" fill="#E9C9AB"/>
<path fill-rule="evenodd" clip-rule="evenodd" d="M366.352 152.116C365.498 148.282 363.067 145.668 363.438 143.955C363.81 142.241 365.418 141.823 365.418 141.823C365.418 141.823 366.249 138.426 370.782 138.933C375.315 139.44 378.082 141.341 376.887 145.524C375.789 145.524 374.463 145.123 372.63 145.81C371.757 146.138 371.381 147.839 371.381 147.839H370.553C370.553 147.839 369.347 145.82 368.174 146.355C367.002 146.89 367.641 148.955 367.641 148.955L367.233 152.116H366.352Z" fill="#191847"/>
<path fill-rule="evenodd" clip-rule="evenodd" d="M352.243 197.521H374.132L377 233H344.417L352.243 197.521Z" fill="#C5CFD6"/>
<path fill-rule="evenodd" clip-rule="evenodd" d="M352.243 197.521H358.975L363.004 233H344.417L352.243 197.521Z" fill="black" fill-opacity="0.1"/>
<path fill-rule="evenodd" clip-rule="evenodd" d="M386.158 204.55C383.699 209.818 379.855 222.606 379.855 222.606L383.118 224.111C383.118 224.111 391.397 210.669 396.457 201.48C396.221 203.549 395.981 205.878 395.759 208.326C395.232 214.126 395.759 226.656 396.042 230.275C396.22 232.55 399.281 232.074 399.567 230.269C399.615 229.964 399.813 228.891 400.107 227.29C401.55 219.441 405.327 198.9 405.333 193.87C405.336 191.846 401.421 190.028 399.087 191.443C397.484 189.716 394.45 188.72 392.707 191.573C391.599 193.387 388.966 198.537 386.158 204.55Z" fill="#E9C9AB"/>
<path fill-rule="evenodd" clip-rule="evenodd" d="M380.088 217.872L391.288 191.08C393.971 186.722 401.493 191.967 400.578 194.495C398.501 200.233 387.937 218.813 387.318 220.522L380.088 217.872Z" fill="#E7BB25"/>
<path fill-rule="evenodd" clip-rule="evenodd" d="M381.34 222.211C380.426 221.473 379.108 221.103 378.351 221.998C378.25 222.118 378.164 222.234 378.105 222.337C377.722 223.008 377.208 224.423 377.208 224.423C377.978 224.871 391.047 232.491 391.047 232.491C391.047 232.491 392.616 231.005 391.536 230.184C390.456 229.362 389.753 228.798 389.753 228.798L385.41 222.755C385.079 222.295 384.437 222.2 383.993 222.546L383.582 222.865C383.582 222.865 382.216 222.745 381.543 222.353C381.478 222.315 381.41 222.266 381.34 222.211Z" fill="#6F7475"/>
<path fill-rule="evenodd" clip-rule="evenodd" d="M397.601 228.999C396.437 228.828 395.106 229.169 394.895 230.326C394.867 230.481 394.85 230.622 394.85 230.741C394.85 231.515 395.105 233 395.105 233C395.994 233 411.086 233 411.086 233C411.086 233 411.709 230.92 410.367 230.755C409.025 230.589 408.137 230.455 408.137 230.455L401.388 227.417C400.872 227.184 400.265 227.427 400.052 227.951L399.855 228.433C399.855 228.433 398.612 229.019 397.835 229.019C397.763 229.019 397.684 229.012 397.601 228.999Z" fill="#6F7475"/>
<path fill-rule="evenodd" clip-rule="evenodd" d="M406.118 195.928C406.118 203.53 402.544 221.261 402.541 222.934L394.85 222.94C394.85 222.94 396.539 199.209 396.048 198.953C395.556 198.697 375.916 200.933 370.026 200.933C361.532 200.933 358.018 195.524 357.733 185.504H374.559C377.985 185.874 395.856 189.514 402.492 190.765C405.333 191.301 406.118 193.834 406.118 195.928Z" fill="#EDC127"/>
<path fill-rule="evenodd" clip-rule="evenodd" d="M397.219 152.876L386.479 156.132L389.221 160.744L397.571 155.782C401.469 155.547 403.311 155.159 403.096 154.617C402.916 154.16 402.485 154.082 402.089 154.011C401.78 153.955 401.492 153.903 401.358 153.678C401.053 153.164 402.122 151.828 403.191 150.604C404.259 149.38 403.404 149.323 402.888 149.421C401.112 150.149 399.222 151.301 397.219 152.876ZM394.568 181.954L385.53 175.252L383.532 180.239L392.482 183.987C395.013 186.99 396.429 188.241 396.728 187.742C396.981 187.321 396.784 186.927 396.602 186.564C396.46 186.282 396.328 186.018 396.425 185.775C396.647 185.22 398.348 185.278 399.959 185.403C401.57 185.529 401.1 184.805 400.712 184.447C399.067 183.453 397.019 182.622 394.568 181.954Z" fill="#E9C9AB"/>
<path fill-rule="evenodd" clip-rule="evenodd" d="M371.492 157.203C376.414 166.47 383.531 173.574 393.849 180.959L389.942 185.408C378.422 181.084 372.342 178.476 369.356 169.72C368.607 167.523 368.083 160.518 367.634 156.832L371.492 157.203Z" fill="#3EA567"/>
<path fill-rule="evenodd" clip-rule="evenodd" d="M357.733 188.079H379.55C379.55 188.079 372.137 165.249 371.977 156.741C371.971 156.452 371.442 155.942 371.208 156.009C368.642 156.741 365.715 155.462 365.715 155.462C360.543 163.862 358.755 174.204 357.733 188.079Z" fill="#F2F2F2"/>
<path fill-rule="evenodd" clip-rule="evenodd" d="M371.188 168.277C374.595 183.037 374.438 195.12 366.915 195.12H355.283C353.435 182.581 358.291 165.197 362.793 156.428C362.964 156.093 363.33 155.462 364.193 155.462H367.573C367.574 155.466 367.576 155.471 367.577 155.475C368.594 155.484 369.714 155.521 370.927 155.562C377.172 155.771 385.88 156.063 395.678 152.887L396.833 158.716C387.99 164.46 379.035 168.909 371.188 168.277Z" fill="#3EA567"/>
<path fill-rule="evenodd" clip-rule="evenodd" d="M945.476 168.405L932.621 200.94L924 228.447H920.595L933.776 168.405L945.476 168.405Z" fill="#997659"/>
<path fill-rule="evenodd" clip-rule="evenodd" d="M948.065 168.405C948.202 179.838 950.198 195.231 950.517 195.944C950.836 196.656 972.537 214.07 972.537 214.07L970.192 216.579C970.192 216.579 944.587 201.649 943.402 199.658C942.217 197.667 938.359 179.343 935.262 168.405H948.065Z" fill="#B28B67"/>
<path fill-rule="evenodd" clip-rule="evenodd" d="M971.537 215.073C972.24 214.137 973.32 213.265 974.304 213.898C974.37 213.94 974.429 213.983 974.478 214.024C975.021 214.48 975.911 215.534 975.911 215.534C975.382 216.164 966.415 226.85 966.415 226.85C966.415 226.85 964.587 226.067 965.268 225.02C965.949 223.972 966.383 223.264 966.383 223.264L968.243 216.767C968.398 216.226 968.969 215.919 969.506 216.089L969.886 216.21C969.886 216.21 971.035 215.675 971.497 215.125C971.51 215.108 971.524 215.091 971.537 215.073Z" fill="#E4E4E4"/>
<path fill-rule="evenodd" clip-rule="evenodd" d="M923.139 227.354C924.308 227.29 925.67 227.557 925.818 228.718C925.828 228.796 925.833 228.868 925.833 228.932C925.833 229.641 925.597 231 925.597 231C924.776 231 910.825 231 910.825 231C910.825 231 910.25 229.096 911.49 228.945C912.731 228.793 913.551 228.671 913.551 228.671L919.724 225.919C920.238 225.689 920.841 225.93 921.055 226.451L921.207 226.82C921.207 226.82 922.356 227.355 923.074 227.355C923.095 227.355 923.117 227.355 923.139 227.354Z" fill="#E4E4E4"/>
<path fill-rule="evenodd" clip-rule="evenodd" d="M936.833 225.613L920.646 223.857L932.643 168.405H947.141L936.833 225.613Z" fill="#69A1AC"/>
<path fill-rule="evenodd" clip-rule="evenodd" d="M969.189 210.022L958.571 222.589C958.571 222.589 941.796 204.268 939.012 198.68C936.227 193.092 934.005 168.405 934.005 168.405H950.327C950.327 168.405 951.541 190.123 951.963 191.134C952.386 192.145 969.189 210.022 969.189 210.022Z" fill="#89C5CC"/>
<path fill-rule="evenodd" clip-rule="evenodd" d="M939.845 117.072C943.1 117.072 945.738 119.71 945.738 122.964V127.941C945.738 130.893 943.568 133.338 940.735 133.767C940.734 133.791 940.733 133.815 940.731 133.839H933.136C931.844 132.577 933.304 124.018 934.214 121.181C934.343 120.78 934.468 120.491 934.59 120.295C935.564 118.382 937.552 117.072 939.845 117.072Z" fill="#191847"/>
<path fill-rule="evenodd" clip-rule="evenodd" d="M939.731 129.707C938.035 130.729 936.369 131.223 935.587 131.021C933.625 130.516 933.445 123.34 934.963 120.511C936.48 117.682 944.282 116.449 944.676 122.054C944.812 124 943.995 125.736 942.789 127.152L944.952 137.238H938.667L939.731 129.707Z" fill="#B28B67"/>
<path fill-rule="evenodd" clip-rule="evenodd" d="M945.507 122.087C945.325 121.907 945.148 121.732 944.973 121.576L944.982 121.372C944.982 121.372 943.009 117.333 939.976 117.333C936.946 117.333 935.987 118.742 935.173 119.939L935.171 119.943C935.597 121.405 936.881 121.996 938.333 122.665C938.958 122.953 939.615 123.255 940.247 123.648C940.495 123.446 940.811 123.326 941.155 123.326C941.95 123.326 942.595 123.971 942.595 124.766C942.595 125.562 941.95 126.207 941.155 126.207C941.133 126.207 941.111 126.206 941.089 126.205C940.8 129.316 940.916 132.869 941.779 133.712H949.374C949.592 129.924 948.612 128.843 947.611 127.739C946.669 126.7 945.707 125.64 945.707 122.284C945.64 122.218 945.573 122.152 945.508 122.087L945.507 122.087L945.507 122.087Z" fill="#191847"/>
<path fill-rule="evenodd" clip-rule="evenodd" d="M924.171 140.038L933.261 145.017L929.904 148.62L923.299 142.572C919.819 141.613 918.228 140.911 918.525 140.467C918.775 140.093 919.179 140.106 919.552 140.118C919.842 140.127 920.112 140.136 920.276 139.96C920.649 139.559 919.936 138.158 919.203 136.856C918.47 135.555 919.254 135.668 919.702 135.855C921.17 136.849 922.659 138.243 924.171 140.038ZM915.031 147.024L919.024 149.218L918.796 153.225C918.796 153.225 916.21 151.358 913.985 150.738C911.148 149.947 910 149.343 908.614 147.576C907.872 146.631 907.243 144.731 907.949 144.113C908.22 143.875 909.229 144.436 910.258 145.008C911.043 145.444 911.84 145.887 912.33 145.988C912.991 146.124 912.914 145.268 912.852 144.583C912.808 144.092 912.771 143.69 913.021 143.806C914.19 143.826 915.031 147.024 915.031 147.024Z" fill="#997659"/>
<path fill-rule="evenodd" clip-rule="evenodd" d="M937.689 143.908C934.505 143.874 930.258 143.202 925.728 140.326L923.949 144.294C927.074 147.395 931.468 149.943 935.31 149.835C938.338 149.75 939.885 146.088 937.689 143.908Z" fill="#D65950"/>
<path fill-rule="evenodd" clip-rule="evenodd" d="M946.276 171.092C949.304 170.697 952.085 170.334 953.733 170.659C955.583 164.653 954.047 160.871 952.629 157.38C951.775 155.276 950.963 153.277 950.962 150.961C950.957 144.216 945.541 133.833 944.744 133.833H944.515H938.2H937.477C937.152 138.008 935.765 142.527 934.37 147.075C934.044 148.137 933.717 149.201 933.404 150.263C928.122 151.461 916.395 147.288 916.395 147.288C916.395 147.288 913.435 153.413 913.658 156.021C920.484 159.587 926.335 161.177 931.154 161.282C931.001 164.141 931.349 166.863 932.519 169.349C934.086 172.681 940.611 171.83 946.276 171.092Z" fill="#E75C52"/>
<g clip-path="url(#clip0_5:4281)">
<rect x="47" y="77.877" width="125" height="109" rx="8" fill="#F2F2F2"/>
<path d="M47 85.877C47 81.4587 50.5817 77.877 55 77.877H164C168.418 77.877 172 81.4587 172 85.877V104.877H47V85.877Z" fill="#C5CFD6"/>
<path fill-rule="evenodd" clip-rule="evenodd" d="M60 95.877C62.2091 95.877 64 94.0861 64 91.877C64 89.6678 62.2091 87.877 60 87.877C57.7909 87.877 56 89.6678 56 91.877C56 94.0861 57.7909 95.877 60 95.877Z" fill="#F2F2F2"/>
<path fill-rule="evenodd" clip-rule="evenodd" d="M72 95.877C74.2091 95.877 76 94.0861 76 91.877C76 89.6678 74.2091 87.877 72 87.877C69.7909 87.877 68 89.6678 68 91.877C68 94.0861 69.7909 95.877 72 95.877Z" fill="#F2F2F2"/>
<path fill-rule="evenodd" clip-rule="evenodd" d="M84 95.877C86.2091 95.877 88 94.0861 88 91.877C88 89.6678 86.2091 87.877 84 87.877C81.7909 87.877 80 89.6678 80 91.877C80 94.0861 81.7909 95.877 84 95.877Z" fill="#F2F2F2"/>
<rect x="95" y="121" width="70" height="81" rx="8" fill="white"/>
<path fill-rule="evenodd" clip-rule="evenodd" d="M130 168C138.837 168 146 160.837 146 152C146 143.163 138.837 136 130 136C121.163 136 114 143.163 114 152C114 160.837 121.163 168 130 168Z" fill="#DDE3E9"/>
<rect x="105" y="172" width="50" height="6" rx="3" fill="#DDE3E9"/>
<rect x="113" y="182" width="34" height="6" rx="3" fill="#DDE3E9"/>
<g clip-path="url(#clip1_5:4281)">
<rect x="51" y="121" width="36" height="47" rx="4" fill="white"/>
<g clip-path="url(#clip2_5:4281)">
<rect width="64" height="7.05" rx="3" transform="matrix(-1 0 0 1 81 135.1)" fill="#DDE3E9"/>
<rect width="42.9589" height="7.05" rx="3" transform="matrix(-1 0 0 1 81 146.85)" fill="#DDE3E9"/>
</g>
</g>
<g clip-path="url(#clip3_5:4281)">
<rect x="51" y="176" width="36" height="39" rx="4" fill="white"/>
</g>
</g>
<path fill-rule="evenodd" clip-rule="evenodd" d="M49.3096 140.939C51.1495 141.721 52.8857 141.979 53.6399 141.668C55.5312 140.888 54.7058 133.706 52.7911 131.098C50.8764 128.49 42.8988 128.357 43.291 134.003C43.4271 135.962 44.4875 137.578 45.8933 138.821L45.1423 149.185L51.4302 148.301L49.3096 140.939Z" fill="#B28B67"/>
<path fill-rule="evenodd" clip-rule="evenodd" d="M49.8757 128.374C48.9798 128.234 47.7201 128.32 47.2038 128.454C47.4021 127.699 47.4089 126.888 47.2037 126.128C47.0042 125.39 46.5775 124.798 46.1717 124.171C45.9847 123.882 45.7788 123.598 45.503 123.395C45.222 123.189 44.8868 123.074 44.5481 123.044C44.2015 123.014 43.8514 123.07 43.525 123.187C43.3807 123.24 43.2568 123.326 43.1162 123.384C42.9722 123.444 42.8867 123.361 42.7651 123.282C42.4721 123.093 42.0733 123.036 41.7372 123.042C41.36 123.05 40.983 123.16 40.6464 123.331C40.3187 123.498 40.015 123.736 39.8054 124.051C39.7121 124.191 39.6314 124.347 39.588 124.513C39.5702 124.581 39.5711 124.62 39.5101 124.652C39.4537 124.683 39.3842 124.693 39.3257 124.722C38.7603 125.006 38.317 125.535 38.1232 126.161C38.0101 126.526 38.0185 127.14 38.1344 127.813C38.2503 128.486 39.1104 130.164 39.7734 130.727C40.3652 131.229 41.1697 131.502 41.918 131.566C41.5139 132.182 41.2898 132.913 41.1509 133.643C41 134.436 40.9513 135.245 41.0052 136.055C41.0563 136.824 41.1643 137.63 41.4481 138.35C41.7136 139.024 42.1522 139.545 42.8012 139.824C43.0984 139.952 43.4107 140.035 43.7232 140.107C44.0311 140.179 44.3395 140.247 44.6544 140.267C45.2503 140.305 45.9148 140.191 46.2963 139.668C46.4338 139.48 46.5814 139.247 46.6703 139.028C46.7022 138.949 46.721 138.898 46.6597 138.834C46.5864 138.758 46.4779 138.706 46.3897 138.651C45.8865 138.334 45.5368 137.866 45.3819 137.272C45.2247 136.671 45.2786 135.858 45.8377 135.507C46.5279 135.074 47.3921 135.338 48.0963 135.599C48.2369 134.581 48.6842 133.619 49.5167 133.044C50.4377 132.408 51.5665 132.19 52.5248 131.621C52.7745 131.472 53.027 131.308 53.1906 131.055C53.2589 130.949 53.3374 130.812 53.3524 130.683C53.3722 130.512 53.2465 130.39 53.1464 130.273C52.6155 129.655 50.7716 128.515 49.8757 128.374Z" fill="#191847"/>
<path fill-rule="evenodd" clip-rule="evenodd" d="M46.8646 169.958L56.4564 203.517L63.4548 228.252H68.5591L61.1224 169.958H46.8646Z" fill="#191847"/>
<path fill-rule="evenodd" clip-rule="evenodd" d="M44.2994 169.958C44.0775 187.255 43.321 196.689 43.0881 198.261C42.8551 199.832 39.3329 209.829 32.5214 228.252H37.8091C46.4807 210.578 51.3214 200.581 52.3312 198.261C53.341 195.94 56.4574 186.506 61.1512 169.958H44.2994Z" fill="#2F3676"/>
<path fill-rule="evenodd" clip-rule="evenodd" d="M32.0488 233L32.3134 227.461L37.8693 227.461C41.821 230.23 48.1874 231.945 48.1874 231.945V233H38.1339L34.6945 232.472V233H32.0488Z" fill="#191847"/>
<path fill-rule="evenodd" clip-rule="evenodd" d="M62.7386 233L63.0032 227.461L68.5591 227.461C72.5108 230.23 78.8772 231.945 78.8772 231.945V233H68.8236L65.3843 232.472V233H62.7386Z" fill="#191847"/>
<path fill-rule="evenodd" clip-rule="evenodd" d="M25.8375 182.849C26.6673 181.309 30.7339 165.426 30.7339 165.426L35.4642 165.611C35.4642 165.611 29.6703 182.632 29.2271 183.626C28.6513 184.917 29.4842 186.851 30.0489 188.162C30.1363 188.365 30.2173 188.553 30.2856 188.721C29.4257 189.07 29.0351 188.599 28.6233 188.102C28.1581 187.542 27.666 186.949 26.44 187.466C25.9664 187.667 25.5164 187.907 25.0767 188.142C23.5581 188.953 22.1631 189.698 20.3435 188.489C20.055 188.297 19.7559 187.603 20.5554 187.096C22.5471 185.833 25.4319 183.603 25.8375 182.849ZM78.1311 167.604L68.9136 162.657L67.7074 167.47L76.4639 169.731C79.19 172.144 80.6595 173.104 80.8723 172.609C81.0518 172.192 80.8186 171.858 80.6038 171.55C80.4365 171.31 80.2803 171.086 80.3391 170.852C80.4733 170.316 82.0528 170.149 83.5585 170.054C85.0643 169.959 84.5371 169.359 84.132 169.083C82.4836 168.389 80.4833 167.896 78.1311 167.604Z" fill="#B28B67"/>
<path fill-rule="evenodd" clip-rule="evenodd" d="M50.7667 143.078L48.1257 144.617C48.2577 145.343 48.4006 146.381 48.5644 147.571C49.0786 151.304 49.7979 156.528 51.0255 158.245C55.2784 164.195 62.6284 166.572 70.8146 169.22C71.9119 169.575 73.0242 169.935 74.1461 170.309L75.6513 165.721C75.3828 165.583 75.1163 165.444 74.8518 165.303C75.1668 165.14 75.4063 164.84 75.4769 164.466C75.5983 163.822 75.1729 163.202 74.5268 163.081C73.2136 162.836 72.019 162.823 70.9546 163.051C62.1752 157.558 55.8039 150.578 50.7667 143.078Z" fill="#69A1AC"/>
<path fill-rule="evenodd" clip-rule="evenodd" d="M42.2285 174.075C42.2285 174.075 54.7736 173.692 61.6779 171.342C62.2481 171.148 61.8684 168.633 61.5 167.983C55.763 157.867 51.8774 150.418 50.8318 142.978C49.7524 143.749 46.7807 143.733 46.7807 143.733C42.6409 152.133 41.479 161.267 42.2285 174.075Z" fill="#191847"/>
<path fill-rule="evenodd" clip-rule="evenodd" d="M26.5776 176.407C30.9423 154.637 44.5903 143.402 44.5903 143.402L46.0055 143.203L46.0055 143.203L47.5699 142.983C47.8578 147.48 50.3536 153.733 53.2489 160.986C57.8794 172.586 63.5315 186.746 62.8077 200.379C59.7244 201.535 55.9163 201.577 51.7939 201.622C45.8442 201.687 39.2395 201.76 33.213 205.199C32.7121 199.849 34.998 193.528 37.2736 187.235C38.7161 183.245 40.1545 179.268 40.8762 175.556C40.5596 175.333 40.3584 174.959 40.3732 174.542L40.401 173.758C40.42 173.22 40.7926 172.778 41.2872 172.648C41.3201 172.243 41.3412 171.844 41.3495 171.448C41.392 169.429 40.9135 167.507 40.4404 165.606C40.1807 164.562 39.9226 163.525 39.7532 162.482C36.6823 166.092 33.1984 172.122 30.9381 182.045L25.7858 181.288C25.8766 180.561 25.9779 179.844 26.0893 179.137C25.4723 178.902 24.5871 177.503 25.0344 177.186C25.5071 176.851 26.0222 176.592 26.5776 176.407Z" fill="#89C5CC"/>
<path fill-rule="evenodd" clip-rule="evenodd" d="M45.7091 143.511L44.9399 147.845L48.0984 150.569L45.9816 153.357L53.3607 162.68L44.6579 153.563L46.7281 150.762L43.9261 148.356L45.7091 143.511Z" fill="black" fill-opacity="0.1"/>
<path fill-rule="evenodd" clip-rule="evenodd" d="M52.1659 166.843C52.7447 166.761 53.1481 166.228 53.067 165.651C52.9859 165.074 52.451 164.672 51.8722 164.753C51.2935 164.834 50.89 165.368 50.9711 165.945C51.0522 166.522 51.5871 166.924 52.1659 166.843ZM54.3202 172.666C54.899 172.585 55.3024 172.051 55.2213 171.474C55.1402 170.897 54.6053 170.495 54.0265 170.577C53.4477 170.658 53.0443 171.192 53.1254 171.769C53.2065 172.346 53.7414 172.748 54.3202 172.666ZM56.3277 177.445C56.4087 178.022 56.0053 178.556 55.4265 178.637C54.8477 178.719 54.3128 178.317 54.2317 177.74C54.1506 177.163 54.5541 176.629 55.1328 176.548C55.7116 176.466 56.2466 176.868 56.3277 177.445Z" fill="black" fill-opacity="0.4"/>
<path fill-rule="evenodd" clip-rule="evenodd" d="M1026.02 133.283C1024.35 134.588 1022.64 135.329 1021.78 135.218C1019.63 134.938 1018.51 127.354 1019.75 124.156C1021 120.959 1029.13 118.633 1030.28 124.524C1030.68 126.568 1030.04 128.516 1028.94 130.175L1032.55 140.586L1025.87 141.407L1026.02 133.283Z" fill="#DABFA5"/>
<path fill-rule="evenodd" clip-rule="evenodd" d="M1023.14 120.231C1024 119.979 1026.36 119.589 1026.8 119.535C1027.08 119.501 1027.39 119.527 1027.52 119.251C1027.63 119.025 1027.54 118.677 1027.55 118.428C1027.56 118.14 1027.59 117.853 1027.63 117.567C1027.72 116.752 1027.92 115.963 1028.24 115.206C1028.84 113.786 1029.83 112.61 1031.17 111.832C1032.64 110.973 1034.39 110.604 1036.08 110.533C1037.89 110.458 1039.58 110.849 1041.34 111.196C1043.02 111.528 1044.74 111.528 1046.39 111.063C1048.06 110.594 1049.23 109.517 1050.56 108.47C1051.92 107.397 1053.52 106.607 1055.28 106.528C1056.91 106.455 1058.49 106.938 1059.93 107.664C1061.29 108.344 1062.45 109.22 1063.2 110.559C1064.02 112 1064.22 113.667 1063.35 115.135C1062.1 117.263 1059.38 118.108 1057.06 118.341C1055.72 118.477 1054.38 118.395 1053.06 118.107C1051.3 117.723 1049.73 116.901 1048.05 116.283C1047.26 115.992 1046.46 115.773 1045.63 115.646C1044.83 115.523 1044.05 115.516 1043.41 116.071C1042.72 116.657 1042.11 117.226 1041.3 117.64C1040.52 118.038 1039.68 118.311 1038.8 118.411C1037.11 118.606 1035.37 118.285 1033.69 118.134C1032.31 118.012 1030.84 117.901 1029.51 118.346C1028.95 118.531 1028.15 118.871 1028.01 119.488C1031.56 119.689 1033.45 123.798 1032.85 127.058C1032.53 128.818 1029.6 131.188 1028.26 130.449C1027.41 129.98 1027.79 129.181 1028.04 128.654C1028.51 127.645 1028.57 126.417 1027.4 125.899C1026.39 125.452 1025.57 126.908 1025.55 126.909C1025.29 126.921 1022.91 125.938 1021.15 124.292C1019.64 124.568 1019.29 123.6 1019.55 122.741C1019.81 121.882 1021.94 120.58 1023.14 120.231Z" fill="#191847"/>
<path fill-rule="evenodd" clip-rule="evenodd" d="M1045.85 191.578C1045.85 191.578 1035.75 194.394 1028.43 194.394C1021.1 194.394 1014.82 190.057 1014.82 190.057C1014.82 190.057 1024.7 187.167 1031.09 187.167C1037.49 187.167 1045.85 191.578 1045.85 191.578Z" fill="#80B2FF"/>
<path fill-rule="evenodd" clip-rule="evenodd" d="M1022.6 197.099C1022.66 197.002 1022.72 196.896 1022.76 196.782C1023.66 194.409 1038.07 168.815 1039.51 164.136H1023.28C1022.19 167.694 1017.28 190.02 1016.59 194.474C1014.4 201.501 1009.91 224.256 1009.34 225.833C1008.74 227.491 1012.13 229.219 1013.03 227.18C1014.47 223.936 1017.9 214.96 1019.43 209.479C1020.86 204.341 1022.03 199.718 1022.6 197.099Z" fill="#DABFA5"/>
<path fill-rule="evenodd" clip-rule="evenodd" d="M1035.87 200.224C1042.46 201.885 1066.56 204.886 1068.22 205.357C1069.92 205.841 1071.41 202.345 1069.31 201.587C1065.96 200.382 1056.74 197.598 1051.15 196.461C1046.65 195.547 1042.55 194.802 1039.8 194.365C1040.03 186.65 1041.1 168.135 1040.4 164.136H1026.04C1026.71 167.971 1032.38 195.95 1033.43 198.751C1033.77 199.751 1034.76 200.193 1035.87 200.224V200.224Z" fill="#DABFA5"/>
<path fill-rule="evenodd" clip-rule="evenodd" d="M1068.93 202.917C1068.98 201.746 1069.54 200.492 1070.71 200.493C1070.85 200.493 1070.98 200.501 1071.09 200.52C1071.84 200.651 1073.23 201.152 1073.23 201.152C1073.08 202.016 1070.48 216.691 1070.48 216.691C1070.48 216.691 1068.36 216.944 1068.43 215.611C1068.51 214.277 1068.53 213.391 1068.53 213.391L1066.76 206.321C1066.62 205.774 1066.96 205.222 1067.51 205.101L1068 204.994C1068 204.994 1068.78 203.886 1068.91 203.13C1068.92 203.065 1068.93 202.993 1068.93 202.917Z" fill="#E4E4E4"/>
<path fill-rule="evenodd" clip-rule="evenodd" d="M1011.81 227.089C1012.96 226.922 1014.29 227.26 1014.5 228.411C1014.52 228.552 1014.54 228.682 1014.54 228.792C1014.54 229.548 1014.28 231 1014.28 231C1013.4 231 998.456 231 998.456 231C998.456 231 997.839 228.967 999.168 228.805C1000.5 228.642 1001.38 228.512 1001.38 228.512L1008.06 225.542C1008.57 225.313 1009.17 225.554 1009.39 226.074L1009.58 226.535C1009.58 226.535 1010.81 227.107 1011.58 227.107C1011.65 227.107 1011.73 227.101 1011.81 227.089Z" fill="#E4E4E4"/>
<path fill-rule="evenodd" clip-rule="evenodd" d="M1040.35 164.136C1040.35 164.136 1030.86 161.429 1022.39 164.136C1020.43 173.071 1015.66 176.618 1014.82 190.316C1024.36 195.043 1036.14 186.946 1045.96 191.555C1048.77 185.108 1044.84 169.582 1040.35 164.136Z" fill="#97BAFF"/>
<path fill-rule="evenodd" clip-rule="evenodd" d="M1056.58 173.689C1055.56 172.139 1048.87 151.393 1048.87 151.393L1042.78 152.165C1042.78 152.165 1052.51 173.815 1053.07 174.824C1053.79 176.135 1053.09 178.255 1052.62 179.692C1052.54 179.915 1052.47 180.121 1052.42 180.305C1053.36 180.593 1053.73 180.06 1054.12 179.497C1054.56 178.862 1055.02 178.189 1056.37 178.623C1056.89 178.79 1057.38 179.003 1057.87 179.21C1059.55 179.926 1061.09 180.584 1062.9 179.138C1063.19 178.909 1063.44 178.147 1062.55 177.686C1060.33 176.537 1057.08 174.447 1056.58 173.689ZM1004.2 171.718L1011.14 163.075L1014.32 167.274L1006.71 173.104C1005.05 176.587 1004.01 178.132 1003.6 177.737C1003.25 177.404 1003.34 176.981 1003.42 176.592C1003.48 176.289 1003.54 176.006 1003.39 175.801C1003.03 175.334 1001.42 175.824 999.913 176.355C998.404 176.885 998.669 176.081 998.95 175.644C1000.27 174.285 1002.02 172.976 1004.2 171.718Z" fill="#DABFA5"/>
<path fill-rule="evenodd" clip-rule="evenodd" d="M1028.17 136.426L1025.71 136.31C1023.56 150.146 1005.18 161.654 1004.6 166.799C1004.39 168.686 1005.83 169.45 1005.21 170.093L1008.62 171.993C1009.08 171.311 1010.35 172.3 1012.61 171.221C1014.88 170.142 1030.11 152.258 1028.17 136.426Z" fill="#DDE3E9"/>
<path fill-rule="evenodd" clip-rule="evenodd" d="M1024.24 138.062C1025.81 148.319 1023.31 154.645 1021.42 159.45C1019.95 163.157 1018.85 165.96 1020.24 168.965C1022.84 174.598 1041.69 178.683 1044.11 172.55C1045.08 170.093 1045.31 167.24 1045.02 164.206C1046.09 166.393 1047 168.365 1047.65 169.954C1048.34 171.63 1049.73 172.342 1050.78 172.878C1051.5 173.247 1052.06 173.534 1052.12 173.993L1056.08 172.362C1055.89 171.754 1056.08 171.231 1056.31 170.598C1056.65 169.674 1057.07 168.518 1056.51 166.523C1051.21 147.531 1038.69 138.519 1033.73 135.602C1033.35 134.11 1031.86 133.157 1030.33 133.455L1026.46 134.207C1025.19 134.452 1024.28 135.474 1024.11 136.681L1024.02 136.709C1024.04 136.823 1024.06 136.937 1024.08 137.051C1024.08 137.248 1024.09 137.449 1024.13 137.65C1024.16 137.792 1024.2 137.929 1024.24 138.062Z" fill="#DDE3E9"/>
<path d="M1131 89.1653L1134.59 85.5984C1137.71 82.5003 1142.75 82.5003 1145.87 85.5984L1158.27 97.9214C1161.3 100.925 1163 105.012 1163 109.274V229" stroke="#CBCBCB" stroke-width="8"/>
<rect x="1152" y="228" width="22" height="3" rx="1.5" fill="#AFB9C5"/>
<path d="M1117.82 84.8216C1122.69 79.9496 1130.59 79.9496 1135.46 84.8216V84.8216C1140.33 89.6936 1140.33 97.5927 1135.46 102.465L1127.98 109.95L1110.33 92.3066L1117.82 84.8216Z" fill="#C5CFD6"/>
<path fill-rule="evenodd" clip-rule="evenodd" d="M1117.71 102.663C1122.59 107.535 1127.31 110.706 1128.27 109.747C1129.23 108.787 1126.06 104.06 1121.19 99.1876C1116.32 94.3155 1111.59 91.1439 1110.63 92.1036C1109.67 93.0632 1112.84 97.7907 1117.71 102.663Z" fill="#F2F2F2"/>
<path fill-rule="evenodd" clip-rule="evenodd" d="M1221.3 143.808C1223.26 144.991 1225.19 145.562 1226.1 145.329C1228.37 144.744 1228.58 136.439 1226.82 133.165C1225.07 129.891 1216.03 128.464 1215.57 134.951C1215.42 137.202 1216.36 139.212 1217.76 140.851L1215.25 152.524H1222.53L1221.3 143.808Z" fill="#D4A181"/>
<path fill-rule="evenodd" clip-rule="evenodd" d="M1221.66 135.667C1222.29 134.731 1222.9 134.016 1223.69 133.601C1226.89 133.651 1227.26 133.078 1227.26 131.146C1226.74 130.776 1224.92 130.154 1222.88 129.978C1221.83 129.68 1220.6 129.737 1219.41 130.234C1217.94 130.65 1216.7 131.546 1216.15 133.224C1214.16 136.65 1215.67 140.215 1217.7 141.433C1218.25 140.793 1218.72 140.173 1219.14 139.579C1218.8 139.248 1218.59 138.788 1218.59 138.278C1218.59 137.273 1219.4 136.459 1220.41 136.459C1220.48 136.459 1220.56 136.463 1220.63 136.472C1220.67 137.728 1220.86 141.976 1221.35 143.452C1221.93 145.192 1225.29 145.619 1226.46 145.619C1227.48 145.619 1227.44 144.661 1227.42 143.973C1227.41 143.875 1227.41 143.781 1227.41 143.697C1227.41 143.522 1227.18 143.522 1226.92 143.523C1226.59 143.523 1226.2 143.524 1226.2 143.14C1226.2 142.721 1226.78 142.399 1227.3 142.112C1227.62 141.932 1227.92 141.766 1228.04 141.598C1228.42 141.066 1228.55 140.348 1227.98 140.348C1227.66 140.348 1227.23 140.529 1226.72 140.746C1225.94 141.074 1224.95 141.486 1223.88 141.486C1222.09 141.486 1221.67 135.737 1221.66 135.667Z" fill="#191847"/>
<path fill-rule="evenodd" clip-rule="evenodd" d="M1206.08 190.414C1197.24 190.414 1190.08 197.577 1190.08 206.414V212C1190.08 220.837 1197.24 228 1206.08 228H1218.67C1227.5 228 1234.67 220.837 1234.67 212V206.414C1234.67 197.577 1227.5 190.414 1218.67 190.414H1206.08ZM1202.57 198.901C1200.36 198.901 1198.57 200.692 1198.57 202.901V215.513C1198.57 217.722 1200.36 219.513 1202.57 219.513H1222.17C1224.38 219.513 1226.17 217.722 1226.17 215.513V202.901C1226.17 200.692 1224.38 198.901 1222.17 198.901H1202.57Z" fill="#C5CFD6"/>
<path fill-rule="evenodd" clip-rule="evenodd" d="M1264.74 226.484C1258.76 219.187 1254.72 213.776 1252.61 210.254C1248.99 204.222 1246.03 198.855 1245.09 196.805C1242.87 191.916 1250.22 189.626 1251.89 191.907C1254.41 195.358 1259.79 206.219 1268.03 224.489L1264.74 226.484Z" fill="#B28B67"/>
<path fill-rule="evenodd" clip-rule="evenodd" d="M1252.49 224.362L1241.36 196.366C1238.98 191.262 1250.48 187.907 1252.22 190.282C1256.2 195.675 1265.64 216.946 1266.82 218.553L1252.49 224.362Z" fill="#2F3676"/>
<path fill-rule="evenodd" clip-rule="evenodd" d="M1222.85 218.748C1225.01 215.588 1232.9 204.955 1237.2 200.556C1238.43 199.292 1239.63 198.079 1240.77 196.948C1244.16 193.587 1250.9 199.236 1247.52 202.297C1239.11 209.921 1226.83 220.212 1225.8 221.13C1224.36 222.416 1221.48 220.734 1222.85 218.748Z" fill="#D4A181"/>
<path fill-rule="evenodd" clip-rule="evenodd" d="M1225.24 218.591C1224.37 217.812 1223.04 217.489 1222.26 218.357C1222.1 218.524 1221.98 218.685 1221.9 218.826C1221.49 219.536 1220.94 221.034 1220.94 221.034C1221.76 221.51 1235.75 229.583 1235.75 229.583C1235.75 229.583 1237.43 228.008 1236.28 227.138C1235.12 226.268 1234.37 225.67 1234.37 225.67L1229.67 219.209C1229.34 218.753 1228.7 218.661 1228.25 219.004L1227.76 219.385C1227.76 219.385 1226.3 219.257 1225.58 218.842C1225.47 218.78 1225.36 218.693 1225.24 218.591Z" fill="#E4E4E4"/>
<path fill-rule="evenodd" clip-rule="evenodd" d="M1264.44 225.551C1263.3 225.313 1261.99 225.695 1261.74 226.839C1261.69 227.06 1261.66 227.263 1261.66 227.426C1261.66 228.246 1261.94 229.819 1261.94 229.819C1262.89 229.819 1279.05 229.819 1279.05 229.819C1279.05 229.819 1279.71 227.615 1278.28 227.44C1276.84 227.264 1275.89 227.123 1275.89 227.123L1268.59 223.872C1268.08 223.642 1267.47 223.883 1267.26 224.404L1267.02 224.98C1267.02 224.98 1265.69 225.601 1264.86 225.601C1264.74 225.601 1264.59 225.582 1264.44 225.551Z" fill="#E4E4E4"/>
<path fill-rule="evenodd" clip-rule="evenodd" d="M1237.35 197.764C1237.35 197.764 1223.48 195.505 1218.77 194.675C1209.81 193.097 1207.2 188.281 1208.74 177.774L1225.24 177.774C1228.52 178.719 1252.61 189.465 1252.61 189.465C1255.5 190.899 1254.97 195.126 1254.44 196.519C1254.41 196.604 1239.82 221.547 1239.82 221.547L1226.32 212.955L1237.38 198.777C1237.38 198.777 1237.82 197.895 1237.35 197.764Z" fill="#5C63AB"/>
<path fill-rule="evenodd" clip-rule="evenodd" d="M1248.22 180.906L1238.54 173.806L1236.4 179.09L1245.99 183.06C1248.7 186.241 1250.21 187.567 1250.53 187.038C1250.8 186.592 1250.59 186.175 1250.4 185.79C1250.24 185.491 1250.1 185.211 1250.21 184.954C1250.45 184.366 1252.27 184.428 1253.99 184.561C1255.72 184.693 1255.21 183.926 1254.8 183.547C1253.04 182.494 1250.84 181.614 1248.22 180.906ZM1197.48 193.417C1198.37 191.615 1201.39 174.051 1201.39 174.051L1207.73 174.076C1207.73 174.076 1201.86 193.015 1201.39 194.174C1200.79 195.679 1201.82 197.866 1202.52 199.349C1202.63 199.579 1202.73 199.791 1202.81 199.982C1201.84 200.416 1201.37 199.891 1200.88 199.338C1200.33 198.712 1199.74 198.051 1198.35 198.694C1197.82 198.943 1197.31 199.237 1196.82 199.524C1195.11 200.516 1193.54 201.427 1191.41 200.111C1191.07 199.903 1190.7 199.117 1191.59 198.504C1193.83 196.974 1197.04 194.298 1197.48 193.417Z" fill="#D4A181"/>
<path fill-rule="evenodd" clip-rule="evenodd" d="M1219.41 147.472L1222.03 147.022C1231.76 155.423 1235.76 171.562 1247.69 180.112L1244.82 183.668C1224.12 181.108 1218.99 161.422 1219.41 147.472Z" fill="#E87613"/>
<path fill-rule="evenodd" clip-rule="evenodd" d="M1207.97 180.411C1207.97 180.411 1223.75 180.411 1231.18 180.411C1232.24 180.411 1232.04 178.88 1231.89 178.108C1230.12 169.197 1223.21 159.59 1223.21 146.904L1216.52 145.855C1210.98 154.754 1209.07 165.711 1207.97 180.411Z" fill="#DDE3E9"/>
<path fill-rule="evenodd" clip-rule="evenodd" d="M1205.36 186.776C1204.32 189.279 1203.3 191.464 1202.33 193.142H1197.36C1196.82 175.839 1203.38 162.526 1208.86 154.498C1207.64 154.411 1206.55 153.902 1205.85 152.649C1203.4 148.237 1204.29 145.808 1206.9 145.009C1208.34 144.57 1209.69 144.87 1211.31 145.229C1212.64 145.522 1214.14 145.855 1216.01 145.855C1216.01 145.855 1216.01 145.855 1216.01 145.855C1216.2 145.855 1216.36 145.868 1216.51 145.891L1218.73 146.018C1218.73 146.018 1227.75 176.563 1223.71 186.776H1205.36Z" fill="#FF9B21"/>
<path fill-rule="evenodd" clip-rule="evenodd" d="M1205.36 186.776C1206.73 183.492 1208.14 179.658 1209.49 175.699C1209.99 180.059 1210.83 184.438 1212.22 186.776H1205.36Z" fill="black" fill-opacity="0.1"/>
<path fill-rule="evenodd" clip-rule="evenodd" d="M1099.54 170.045C1101.45 174.585 1104.7 177.74 1106.42 182.461C1107.44 185.26 1107.87 188.304 1107.89 191.422C1107.91 193.115 1107.88 194.81 1107.87 196.503C1107.86 198.154 1107.82 199.795 1107.68 201.436C1107.54 203.085 1107.38 204.715 1107.31 206.375C1107.25 207.668 1107.23 209.172 1106.79 210.352C1106.44 211.29 1105.56 211.427 1105.32 210.29C1105.19 209.657 1105.21 208.951 1105.22 208.301C1105.24 207.467 1105.29 206.634 1105.31 205.801C1105.41 202.455 1105.28 199.108 1105.35 195.761C1105.42 192.491 1105.84 189.224 1105.37 185.975C1104.99 183.293 1104.01 180.989 1102.89 178.781C1101.81 176.656 1100.64 174.583 1099.91 172.166C1099.7 171.472 1099.54 170.753 1099.46 170.007C1099.49 169.991 1099.52 170.004 1099.54 170.045Z" fill="#C1DEE2"/>
<path fill-rule="evenodd" clip-rule="evenodd" d="M1099.02 179.002C1099.4 179.275 1099.61 179.675 1099.87 180.069C1100.19 180.56 1100.56 181.002 1100.88 181.493C1101.54 182.516 1102.12 183.601 1102.73 184.666C1103.87 186.686 1104.75 188.839 1105.18 191.176C1105.62 193.598 1105.75 196.098 1105.93 198.556C1106.13 201.161 1106.33 203.785 1106.36 206.401C1106.37 207.572 1106.43 208.816 1106.29 209.98C1106.21 210.704 1105.88 211.321 1105.14 211.315C1103.58 211.303 1102.84 209.569 1102.53 208.147C1102.08 206.054 1101.99 203.83 1102.06 201.688C1102.15 199.106 1102.6 196.563 1102.79 193.991C1103 191.269 1102.88 188.594 1101.95 186.03C1101.47 184.735 1100.92 183.471 1100.43 182.184C1100.22 181.636 1100.05 181.073 1099.77 180.563C1099.45 179.995 1099.06 179.48 1098.81 178.869C1098.88 178.913 1098.95 178.958 1099.02 179.002Z" fill="#89C5CC"/>
<path fill-rule="evenodd" clip-rule="evenodd" d="M1117.05 173.573C1117.1 173.536 1117.15 173.498 1117.2 173.461C1117.06 174.043 1116.81 174.517 1116.62 175.049C1116.45 175.528 1116.36 176.069 1116.25 176.592C1115.97 177.821 1115.66 179.022 1115.4 180.262C1114.9 182.714 1114.99 185.356 1115.33 188.077C1115.64 190.647 1116.14 193.213 1116.37 195.783C1116.57 197.914 1116.65 200.111 1116.47 202.144C1116.34 203.525 1115.92 205.174 1114.79 205.034C1114.25 204.969 1113.97 204.325 1113.86 203.598C1113.68 202.43 1113.64 201.202 1113.57 200.041C1113.41 197.449 1113.38 194.865 1113.35 192.3C1113.32 189.88 1113.24 187.412 1113.4 185.053C1113.56 182.776 1114.05 180.725 1114.74 178.832C1115.11 177.835 1115.46 176.814 1115.87 175.864C1116.07 175.408 1116.31 175.005 1116.51 174.55C1116.67 174.183 1116.8 173.807 1117.05 173.573Z" fill="#C1DEE2"/>
<path fill-rule="evenodd" clip-rule="evenodd" d="M1099.51 186.505C1099.71 186.157 1100.17 187.304 1100.24 187.448C1100.21 187.376 1100.18 187.304 1100.15 187.233C1100.56 187.916 1100.94 188.627 1101.17 189.411C1101.4 190.186 1101.6 190.977 1101.82 191.758C1102.22 193.223 1102.75 194.647 1103.12 196.126C1103.48 197.566 1103.57 198.983 1103.48 200.473C1103.39 202.022 1103.34 203.594 1103.44 205.142C1103.49 205.882 1103.73 206.571 1103.9 207.282C1104.06 207.995 1104.19 208.717 1104.39 209.42C1104.43 209.329 1104.44 209.635 1104.44 209.658C1104.43 209.834 1104.41 209.982 1104.35 210.148C1104.21 210.577 1103.94 210.941 1103.52 211.059C1102.78 211.273 1102.08 210.593 1101.84 209.875C1101.49 208.844 1101.3 207.706 1101.14 206.622C1100.99 205.629 1100.95 204.63 1101 203.623C1101.08 201.638 1101.44 199.678 1101.54 197.693C1101.65 195.533 1101.22 193.502 1100.86 191.399C1100.69 190.385 1100.52 189.381 1100.19 188.415C1100.05 188.024 1099.87 187.679 1099.69 187.318C1099.58 187.113 1099.37 186.746 1099.51 186.505Z" fill="#C1DEE2"/>
<path fill-rule="evenodd" clip-rule="evenodd" d="M1105.57 183.129C1105.49 185.605 1105.34 188.062 1105.01 190.511C1104.67 193.011 1104.28 195.502 1103.96 198.004C1103.65 200.44 1103.31 202.916 1103.36 205.385C1103.39 207.204 1103.09 210.281 1105.11 211.179C1107.16 212.088 1107.59 208.206 1107.73 206.924C1107.99 204.466 1107.9 201.981 1107.78 199.509C1107.65 196.972 1107.44 194.447 1107.17 191.92C1106.88 189.112 1106.64 186.291 1106.46 183.475C1106.37 182.082 1106.34 180.692 1106.37 179.299C1106.39 177.984 1106.34 176.656 1105.88 175.408C1105.85 175.425 1105.83 175.443 1105.8 175.461" fill="#69A1AC"/>
<path fill-rule="evenodd" clip-rule="evenodd" d="M1116.13 190.973C1115.77 191.509 1115.4 192.039 1115.05 192.607C1114.43 193.623 1113.86 194.753 1113.7 196.205C1113.34 199.245 1113.63 202.529 1113.69 205.662C1113.71 206.302 1113.63 206.923 1113.88 207.532C1114.11 208.085 1114.54 208.506 1114.94 208.503C1115.82 208.498 1115.68 206.361 1115.68 205.42C1115.69 203.771 1115.5 202.105 1115.52 200.458C1115.53 198.826 1115.63 197.189 1115.87 195.639C1116.11 194.07 1116.46 192.563 1116.92 191.157C1116.99 190.962 1117.45 189.454 1117.01 189.714" fill="#89C5CC"/>
<path fill-rule="evenodd" clip-rule="evenodd" d="M1112.28 174.759C1111.71 174.759 1111.71 177.62 1111.69 177.987C1111.63 179.313 1111.64 180.64 1111.61 181.966C1111.52 184.861 1111.41 187.781 1110.98 190.642C1110.74 192.182 1110.47 193.715 1110.18 195.244C1109.89 196.777 1109.5 198.308 1109.3 199.86C1109.12 201.353 1109.22 202.874 1109.25 204.374C1109.27 205.883 1109.32 207.395 1109.52 208.89C1109.56 209.259 1109.62 209.627 1109.68 209.994C1109.73 210.3 1109.7 210.679 1109.79 210.97C1109.93 211.435 1110.52 211.587 1110.92 211.515C1112 211.317 1112.69 209.961 1113.06 208.971C1113.53 207.706 1113.78 206.333 1114.03 205C1114.31 203.49 1114.47 201.956 1114.55 200.418C1114.7 197.293 1114.5 194.165 1114.28 191.049C1114.15 189.317 1114.01 187.592 1113.79 185.87C1113.57 184.156 1113.29 182.449 1113.11 180.729C1112.97 179.48 1112.84 178.228 1112.76 176.974C1112.74 176.675 1112.72 174.759 1112.28 174.759" fill="#69A1AC"/>
<path fill-rule="evenodd" clip-rule="evenodd" d="M1111.56 195.555C1111.47 192.551 1110.26 179.357 1109.99 175.725C1109.92 174.816 1109.26 171.031 1109.17 170C1108.94 170.291 1108.96 174.826 1108.96 175.868C1108.96 176.898 1108.83 177.912 1108.77 178.937C1108.7 179.983 1107.16 193.492 1106.95 194.497C1106.56 196.496 1106.29 198.548 1106.08 200.592C1105.88 202.585 1105.57 204.687 1105.84 206.69C1105.9 207.152 1106 207.605 1106.16 208.029C1106.33 208.487 1106.45 208.91 1106.58 209.389C1106.81 210.16 1107.21 210.837 1107.83 211.156C1109.09 211.809 1109.77 210.331 1110.11 209.044C1110.66 206.988 1111.02 204.899 1111.18 202.741C1111.37 200.353 1111.64 197.959 1111.56 195.555" fill="#89C5CC"/>
<rect x="1098.16" y="204.394" width="19.6844" height="19.6844" rx="2" fill="white"/>
<rect x="1096" y="206.557" width="2.16312" height="24.4433" rx="1.08156" fill="#C5CFD6"/>
<rect x="1106.82" y="206.557" width="2.16312" height="24.4433" rx="1.08156" fill="#C5CFD6"/>
<rect x="1117.85" y="206.557" width="2.16312" height="24.4433" rx="1.08156" fill="#C5CFD6"/>
<path fill-rule="evenodd" clip-rule="evenodd" d="M884.214 159.913C882.501 160.945 880.819 161.445 880.029 161.241C878.048 160.73 877.866 153.479 879.399 150.621C880.931 147.763 888.809 146.517 889.206 152.18C889.344 154.146 888.519 155.9 887.301 157.331L889.486 167.522H883.139L884.214 159.913Z" fill="#F1BE94"/>
<path fill-rule="evenodd" clip-rule="evenodd" d="M891.973 150.295C892.178 150.091 892.29 149.801 892.387 149.526C892.487 149.24 892.585 148.95 892.651 148.653C892.785 148.057 892.786 147.373 892.362 146.911C892.021 146.54 891.511 146.374 891.039 146.338C890.726 146.313 890.403 146.357 890.102 146.456C889.803 146.555 889.546 146.75 889.257 146.872C889.246 146.231 889.136 145.559 888.811 145.012C888.498 144.485 887.999 144.189 887.431 144.111C886.847 144.03 886.271 144.167 885.749 144.45C885.619 144.52 885.489 144.594 885.365 144.678C885.262 144.749 885.154 144.833 885.032 144.862C884.896 144.894 884.829 144.815 884.741 144.716C884.637 144.6 884.521 144.498 884.397 144.407C883.852 144.006 883.137 143.841 882.505 144.081C882.214 144.192 881.931 144.38 881.734 144.639C881.558 144.87 881.432 145.237 881.189 145.398C881.086 145.466 881.013 145.376 880.919 145.309C880.778 145.208 880.644 145.097 880.501 144.999C880.301 144.862 880.084 144.759 879.852 144.705C879.511 144.627 879.041 144.645 878.944 145.091C878.907 145.259 878.935 145.438 878.947 145.606C878.963 145.838 878.98 146.07 879 146.301C879.016 146.477 879.035 146.646 879.068 146.819C879.086 146.911 879.141 147.082 879.102 147.174C879.052 147.289 878.825 147.224 878.728 147.228C878.536 147.236 878.344 147.27 878.166 147.352C878.029 147.415 877.884 147.509 877.826 147.666C877.791 147.763 877.8 147.863 877.817 147.962C877.837 148.082 877.814 148.145 877.799 148.266C877.541 148.139 876.649 147.857 876.537 148.319C876.499 148.473 876.584 148.646 876.649 148.776C876.763 149.004 876.913 149.212 877.065 149.41C877.384 149.824 877.764 150.18 878.173 150.486C877.694 150.699 877.569 151.328 877.984 151.703C878.167 151.868 878.414 151.905 878.645 151.895C878.729 151.891 878.851 151.858 878.918 151.873C878.954 151.881 878.992 151.911 879.042 151.915C879.368 151.937 879.736 151.858 880.055 151.786C880.623 151.657 881.161 151.387 881.601 150.977C881.713 150.872 881.806 150.811 881.958 150.813C882.091 150.814 882.222 150.851 882.354 150.854C882.706 150.863 883.023 150.691 883.349 150.577C883.369 151.018 883.494 151.503 883.675 151.9C883.822 152.224 884.129 152.271 884.43 152.299C885.395 152.39 886.364 152.289 887.33 152.29C886.394 152.502 885.428 152.589 884.501 152.838C884.082 152.95 884.402 153.233 884.581 153.429C884.876 153.751 885.096 154.151 885.248 154.572C885.705 153.975 886.514 153.582 887.23 153.765C888.022 153.968 888.579 155.039 888.073 155.809C887.779 156.256 887.248 156.429 886.807 156.621C887.151 156.979 887.235 157.509 887.442 157.955C887.544 158.174 887.688 158.423 887.917 158.5C888.001 158.528 888.1 158.53 888.167 158.599C888.25 158.685 888.269 158.78 888.375 158.854C888.796 159.147 889.455 159.124 889.828 158.742C890.166 158.396 890.078 157.848 889.796 157.498C890.245 157.31 891.063 157.07 890.884 156.37C891.857 156.305 894.219 154.726 892.914 153.572C893.63 153.167 894.289 152.176 893.828 151.303C893.474 150.631 892.65 150.33 891.973 150.295" fill="#191847"/>
<path fill-rule="evenodd" clip-rule="evenodd" d="M858.225 209.513C858.718 214.896 858.226 226.466 857.961 229.804C857.795 231.902 854.938 231.353 854.671 229.674C854.626 229.389 854.442 228.39 854.167 226.899C852.82 219.588 849.295 200.455 849.289 195.803C849.286 193.669 854.032 191.964 855.931 194.54C857.492 193.443 859.708 193.149 861.074 195.365C862.108 197.043 864.566 201.806 867.186 207.368C869.482 212.24 873.069 224.068 873.069 224.068L870.024 225.46C870.024 225.46 862.501 213.356 857.764 204.87C857.921 206.33 858.077 207.893 858.225 209.513Z" fill="#B28B67"/>
<path fill-rule="evenodd" clip-rule="evenodd" d="M872.852 219.689L862.399 194.909C859.894 190.878 852.873 195.729 853.727 198.067C855.666 203.375 865.526 220.559 866.104 222.141L872.852 219.689Z" fill="#1F28CF"/>
<path fill-rule="evenodd" clip-rule="evenodd" d="M849.025 197.738C849.025 204.761 852.101 221.272 852.103 222.818L859.556 222.567C859.556 222.567 857.602 201.035 857.908 200.889C858.367 200.67 876.723 203.431 882.228 203.64C890.166 203.94 893.45 199.067 893.717 189.818H878.34C878.34 189.818 858.616 192.174 852.414 193.095C849.758 193.49 849.025 195.803 849.025 197.738Z" fill="#2B44FF"/>
<path fill-rule="evenodd" clip-rule="evenodd" d="M871.335 224.009C872.449 223.649 873.833 223.591 874.266 224.679C874.298 224.76 874.324 224.836 874.341 224.905C874.514 225.599 874.615 226.99 874.615 226.99C873.81 227.19 860.142 230.6 860.142 230.6C860.142 230.6 859.113 228.875 860.292 228.423C861.47 227.971 862.244 227.65 862.244 227.65L867.627 223.438C868.071 223.09 868.714 223.178 869.048 223.632L869.293 223.964C869.293 223.964 870.549 224.209 871.252 224.033C871.279 224.027 871.307 224.019 871.335 224.009Z" fill="#E4E4E4"/>
<path fill-rule="evenodd" clip-rule="evenodd" d="M856.109 226.026C857.277 225.946 858.634 226.225 858.791 227.385C858.803 227.472 858.809 227.552 858.809 227.623C858.809 228.339 858.571 229.712 858.571 229.712C857.741 229.712 843.655 229.712 843.655 229.712C843.655 229.712 843.074 227.788 844.327 227.635C845.579 227.482 846.408 227.358 846.408 227.358L852.649 224.574C853.164 224.344 853.766 224.585 853.981 225.106L854.138 225.488C854.138 225.488 855.298 226.029 856.023 226.029C856.05 226.029 856.079 226.028 856.109 226.026Z" fill="#E4E4E4"/>
<rect width="14.0159" height="1.85246" rx="0.926229" transform="matrix(-1 0 0 1 858.545 229.712)" fill="#2F3676"/>
<path d="M897.155 201.34C897.155 195.817 892.678 191.34 887.155 191.34H873.569C868.047 191.34 863.569 195.817 863.569 201.34V206.953H893.155C895.364 206.953 897.155 205.162 897.155 202.953V201.34Z" fill="#2F3676"/>
<path fill-rule="evenodd" clip-rule="evenodd" d="M866.214 191.34V191.34C864.584 191.34 863.194 192.52 862.931 194.128L857.223 228.918H860.048" fill="#2F3676"/>
<path fill-rule="evenodd" clip-rule="evenodd" d="M858.545 234.211C855.916 234.211 853.785 232.078 853.785 229.447C853.785 226.817 855.916 224.684 858.545 224.684C861.174 224.684 863.305 226.817 863.305 229.447C863.305 232.078 861.174 234.211 858.545 234.211Z" fill="#191847"/>
<path fill-rule="evenodd" clip-rule="evenodd" d="M873.619 213.569C873.619 224.677 882.617 233.681 893.717 233.681C904.817 233.681 913.815 224.677 913.815 213.569C913.815 202.461 904.817 193.457 893.717 193.457C882.617 193.457 873.619 202.461 873.619 213.569ZM877.321 213.569C877.321 222.631 884.662 229.976 893.717 229.976C902.772 229.976 910.113 222.631 910.113 213.569C910.113 204.507 902.772 197.161 893.717 197.161C884.662 197.161 877.321 204.507 877.321 213.569Z" fill="#191847"/>
<rect width="2.11562" height="34.9321" transform="matrix(-1 0 0 1 894.775 196.103)" fill="#191847"/>
<rect width="2.11635" height="34.9198" rx="1.05818" transform="matrix(-0.706858 0.707355 0.706858 0.707355 882.123 200.47)" fill="#191847"/>
<rect width="2.1171" height="34.9076" rx="1.05855" transform="matrix(0 1 1 0 876.263 212.51)" fill="#191847"/>
<rect width="2.11635" height="34.9198" rx="1.05818" transform="matrix(0.706859 0.707355 0.706859 -0.707355 880.627 225.171)" fill="#191847"/>
<path fill-rule="evenodd" clip-rule="evenodd" d="M856.83 177.559L867.272 178.984L865.398 183.665L856.926 180.304C853.274 180.664 851.508 180.578 851.629 180.044C851.73 179.593 852.118 179.457 852.476 179.332C852.754 179.234 853.014 179.143 853.105 178.915C853.314 178.394 852.127 177.315 850.957 176.339C849.787 175.363 850.572 175.183 851.066 175.198C852.82 175.609 854.742 176.396 856.83 177.559ZM907.627 203.224C906.853 201.651 900.072 181.402 900.072 181.402L894.281 181.424C894.281 181.424 903.805 202.873 904.213 203.885C904.743 205.199 903.843 207.109 903.233 208.403C903.138 208.604 903.051 208.789 902.977 208.956C903.824 209.335 904.23 208.877 904.659 208.393C905.144 207.847 905.656 207.27 906.863 207.832C907.329 208.049 907.771 208.305 908.202 208.556C909.691 209.422 911.058 210.218 912.919 209.069C913.214 208.887 913.537 208.201 912.756 207.665C910.81 206.33 908.006 203.993 907.627 203.224Z" fill="#F1BE94"/>
<path fill-rule="evenodd" clip-rule="evenodd" d="M884.21 163.023L879.676 163.326C878.559 173.435 872.477 179.821 858.859 177.659L857.05 190.678C869.778 192.324 880.94 187.224 883.228 173.418C883.82 169.844 884.288 166.124 884.21 163.023Z" fill="#AFB9C5"/>
<path fill-rule="evenodd" clip-rule="evenodd" d="M906.833 200.602C903.685 183.841 897.041 170.874 886.9 161.7H886.465H886.45L886.447 161.704L879.577 163.279C879.577 171.537 877.741 177.707 875.976 183.639C875.214 186.2 874.465 188.718 873.883 191.34H892.436C892.697 194.343 892.858 197.431 892.941 200.602H906.833Z" fill="#C5CFD6"/>
<path fill-rule="evenodd" clip-rule="evenodd" d="M892.436 191.34C891.904 185.224 890.954 179.455 889.383 174.032C889.727 179.831 889.823 187.026 888.665 191.34H892.436Z" fill="black" fill-opacity="0.1"/>
<path fill-rule="evenodd" clip-rule="evenodd" d="M189.672 138.979C188.384 140.572 186.938 141.641 186.106 141.722C184.02 141.925 181.31 135.025 181.787 131.743C182.263 128.46 189.415 124.502 191.777 129.802C192.597 131.642 192.416 133.616 191.743 135.418L197.41 144.44L191.297 146.665L189.672 138.979Z" fill="#B28B67"/>
<path fill-rule="evenodd" clip-rule="evenodd" d="M182.505 129.431C182.615 129.297 182.844 129.014 182.969 128.897C182.999 128.868 183.181 128.604 183.188 128.604C183.397 128.599 184.02 128.634 184.14 128.817C184.152 128.829 184.164 128.841 184.176 128.851C184.303 128.962 184.424 129.078 184.544 129.198C184.805 129.46 185.052 129.744 185.292 130.027C185.759 130.578 186.202 131.156 186.628 131.741C187.061 132.337 187.469 132.951 187.894 133.553C188.506 134.419 189.183 135.234 189.793 136.101C190.182 136.654 190.5 137.241 190.687 137.888C190.689 137.896 190.691 137.904 190.694 137.912C190.694 137.915 190.695 137.918 190.696 137.921C190.724 138.021 190.749 138.122 190.77 138.225C190.788 138.313 190.806 138.401 190.824 138.49C190.414 138.104 190.043 137.649 189.67 137.224C189.634 137.183 189.598 137.14 189.563 137.098C189.464 137.02 189.365 136.944 189.265 136.868C188.633 136.389 188.001 135.913 187.382 135.417C186.269 134.525 185.154 133.607 183.946 132.855C183.589 132.633 183.228 132.418 182.874 132.193C182.672 132.064 182.473 131.932 182.277 131.794C182.136 131.696 181.568 131.382 181.613 131.053C181.636 130.885 182.221 129.78 182.505 129.431Z" fill="#2C2C2C"/>
<path fill-rule="evenodd" clip-rule="evenodd" d="M182.933 128.936C182.814 129.031 182.777 128.724 182.873 128.577C183.316 127.893 185.591 126.876 187.777 126.557C189.241 126.343 191.08 126.469 192.496 126.976C193.773 127.433 194.922 128.492 195.728 129.626C196.574 130.817 197.132 132.176 197.423 133.607C197.486 133.922 197.494 134.241 197.547 134.552C197.606 134.902 197.69 135.23 197.7 135.589C197.705 135.808 197.663 136.041 197.679 136.258C197.697 136.506 197.811 136.699 197.941 136.911C198.153 137.255 198.382 137.593 198.646 137.899C199.041 138.36 199.467 138.772 199.822 139.27C200.294 139.933 202.019 142.022 201.634 142.903L189.786 147.215C189.789 146.294 190.337 145.013 190.202 144.077C190.122 143.526 189.766 142.389 189.762 142.345C189.361 140.411 189.563 139.344 189.773 138.907C189.984 138.469 190.383 138.213 190.305 137.929C189.982 136.753 189.129 135.825 188.407 134.88C187.547 133.755 186.782 132.559 185.911 131.442C185.526 130.948 183.554 128.441 182.933 128.936Z" fill="#8991DC"/>
<path fill-rule="evenodd" clip-rule="evenodd" d="M189.506 132.678C188.898 130.71 188.527 129.99 187.565 128.738L187.841 128.637C188.481 129.04 189.47 130.625 189.725 132.598L189.506 132.678ZM194.871 130.622L194.871 130.622L194.871 130.621C194.877 130.487 194.882 130.349 194.888 130.207L195.094 130.227C195.275 132.445 195.17 134.247 193.337 136.393L193.112 136.333C194.737 134.006 194.789 132.693 194.871 130.622ZM190.84 129.936L190.84 129.936C191.438 132.613 191.818 134.31 191.038 137.922L191.271 137.91C192.306 134.446 191.818 132.105 190.922 129.345L190.721 129.4C190.761 129.584 190.801 129.762 190.84 129.936ZM195.732 136.957L195.991 137.109C195.161 137.624 194.79 138.505 194.365 139.516C193.915 140.585 193.405 141.799 192.225 142.875L191.911 142.813C193.139 141.476 193.56 140.439 193.927 139.533C194.306 138.596 194.629 137.799 195.732 136.957Z" fill="black" fill-opacity="0.2"/>
<path fill-rule="evenodd" clip-rule="evenodd" d="M206.248 168.294L196.32 202.437L191.65 228.072H186.963L191.642 168.294H206.248Z" fill="#997659"/>
<path fill-rule="evenodd" clip-rule="evenodd" d="M210.71 168.294C210.017 186.031 210.291 195.706 210.446 197.317C210.601 198.929 211.481 209.721 217.479 228.613H212.604C204.661 210.49 201.888 199.697 200.977 197.317C200.065 194.937 197.375 185.263 193.446 168.294H210.71Z" fill="#B28B67"/>
<path fill-rule="evenodd" clip-rule="evenodd" d="M206.461 168.294C203.879 180.043 199.412 198.797 193.062 224.556H186.206C185.7 198.117 187.854 180.715 191.584 168.294H206.461Z" fill="#69A1AC"/>
<path fill-rule="evenodd" clip-rule="evenodd" d="M210.745 168.294C210.066 186.031 211.825 203.506 217.271 224.832H209.957C201.999 206.979 196.295 189.591 192.397 168.294H210.745Z" fill="#89C5CC"/>
<path fill-rule="evenodd" clip-rule="evenodd" d="M218.174 232.13L217.982 229.05C217.943 228.41 217.313 227.964 216.673 228C214.476 228.122 211.987 227.261 211.987 227.261C209.379 229.105 205.848 230.151 203.693 230.658C202.676 230.897 202.018 231.936 202.304 232.941V232.941H211.987H217.636L218.174 232.13Z" fill="#191847"/>
<path fill-rule="evenodd" clip-rule="evenodd" d="M192.696 232.13L192.505 229.05C192.465 228.41 191.835 227.964 191.195 228C188.999 228.122 186.51 227.261 186.51 227.261C183.901 229.105 180.371 230.151 178.216 230.658C177.199 230.897 176.541 231.936 176.827 232.941V232.941H186.51H192.159L192.696 232.13Z" fill="#191847"/>
<path fill-rule="evenodd" clip-rule="evenodd" d="M169.018 164.401L179.618 166.017L177.627 170.701L169.066 167.169C165.343 167.469 163.547 167.351 163.679 166.815C163.79 166.363 164.188 166.233 164.554 166.113C164.839 166.02 165.105 165.932 165.203 165.704C165.424 165.183 164.236 164.075 163.063 163.071C161.89 162.068 162.692 161.9 163.194 161.923C164.972 162.368 166.913 163.194 169.018 164.401ZM213.196 159.386L218.277 156.886C224.479 165.482 228.054 170.145 229 170.876C229.693 171.412 233.323 172.299 235.714 172.652C236.673 172.793 236.683 173.568 236.493 173.867C235.294 175.757 233.678 175.64 231.918 175.513C231.409 175.477 230.888 175.439 230.361 175.449C228.998 175.475 228.785 176.235 228.583 176.953C228.405 177.59 228.235 178.193 227.285 178.225C227.279 178.039 227.277 177.829 227.274 177.603C227.255 176.14 227.229 173.983 226.151 173.015C225.599 172.517 221.28 167.975 213.196 159.386Z" fill="#B28B67"/>
<path fill-rule="evenodd" clip-rule="evenodd" d="M192.964 142.199L190.596 142.418C186.944 148.513 188.005 160.52 185.126 162.919C182.403 165.187 177.627 164.978 171.89 164.505L171.244 168.51C177.377 172.371 188.673 173.994 192.116 170.417C197.622 164.697 195.348 150.146 192.964 142.199Z" fill="#DB2721"/>
<path fill-rule="evenodd" clip-rule="evenodd" d="M210.44 167.947C210.44 167.947 196.824 171.595 190.409 173.314C189.494 173.56 189.313 172.194 189.267 171.493C188.735 163.403 192.478 153.525 189.548 142.59L195.083 140.138C201.918 146.528 206.101 155.529 210.44 167.947Z" fill="#DDE3E9"/>
<path fill-rule="evenodd" clip-rule="evenodd" d="M194.413 140.318L195.456 140.038C210.551 144.536 221.694 154.792 228.883 170.806L224.905 172.752C221.257 170.264 216.407 165.891 210.354 159.634C212.793 163.727 214.925 168.023 216.36 172.241L198.33 177.073C192.48 169.204 193.168 140.651 193.168 140.651L194.413 140.318Z" fill="#FF4133"/>
<g opacity="0.5">
<path fill-rule="evenodd" clip-rule="evenodd" d="M273.373 168C272.732 167.086 271.542 164.765 270.64 164.438C270.059 164.228 270.228 166.404 270.221 166.819C270.193 168.424 270.349 170.019 270.542 171.611C270.89 174.482 272.027 177.039 273.586 179.482C274.389 180.739 275.33 182.012 276.634 182.796C277.234 183.158 277.956 183.218 278.548 183.529C279.239 183.892 278.863 183.599 279.174 184.318C279.606 185.317 279.744 186.605 279.944 187.67C280.861 192.561 283.083 218.415 282.698 223.39C282.663 223.831 283.278 223.937 283.309 223.398C283.472 220.544 282.06 200.778 281.348 194.314C280.636 187.85 279.915 182.139 279.193 179.903C278.316 177.19 276.732 173.927 275.414 171.397C274.802 170.221 274.135 169.086 273.373 168Z" fill="#69A1AC"/>
<path fill-rule="evenodd" clip-rule="evenodd" d="M268.615 199.703C266.947 198.479 265.141 200.79 266.651 202.015C267.485 202.692 268.357 202.451 268.849 201.887C269.167 202.275 269.466 202.682 269.752 203.025C270.626 204.071 271.452 205.142 272.241 206.237C273.88 208.514 275.285 210.919 276.754 213.28C278.203 215.61 279.641 217.952 280.955 220.341C282.068 222.366 283.551 224.747 283.932 226.966C283.354 222.26 281.16 217.736 278.548 213.587C275.957 209.472 272.983 204.978 268.971 201.73C269.379 201.13 269.39 200.272 268.615 199.703Z" fill="#C1DEE2"/>
<path fill-rule="evenodd" clip-rule="evenodd" d="M300.267 188.225C299.334 188.408 297.809 190.519 297.039 191.324C296.125 192.28 295.295 193.299 294.513 194.367C292.83 196.665 291.324 199.108 290.044 201.656C287.957 205.81 286.285 210.074 285.071 214.598C284.328 217.367 283.847 220.237 283.562 223.086C283.509 223.624 282.945 227.768 283.757 227.879C284.487 227.98 284.262 224.733 284.297 224.291C284.695 219.308 285.888 214.46 287.548 209.763C287.909 208.74 288.245 207.487 288.823 206.567C289.239 205.903 288.826 206.135 289.558 205.884C290.186 205.668 290.901 205.721 291.545 205.457C292.942 204.884 294.061 203.771 295.042 202.652C296.948 200.477 298.458 198.125 299.246 195.338C299.682 193.793 300.084 192.239 300.306 190.646C300.364 190.234 300.869 188.108 300.267 188.225Z" fill="#69A1AC"/>
<path fill-rule="evenodd" clip-rule="evenodd" d="M296.584 153.092C293.068 159.19 290.178 165.888 288.313 172.673C287.182 176.783 286.392 181.001 285.606 185.189C284.39 191.673 283.24 198.156 282.913 204.755C282.584 211.393 281.933 219.048 284.106 225.441C283.02 218.95 284.054 212.042 284.237 205.511C284.324 202.393 284.578 199.306 284.91 196.207C285.233 193.2 285.76 190.208 286.251 187.225C286.49 185.772 286.741 184.321 286.997 182.872C287.073 182.439 287.105 181.156 287.379 180.86C287.656 180.563 289.065 180.441 289.507 180.223C290.398 179.784 291.236 179.159 291.977 178.5C293.399 177.235 294.635 175.582 295.611 173.953C297.87 170.184 298.773 165.585 298.727 161.219C298.718 160.372 297.355 151.246 297.903 151.12C297.87 151.081 297.839 151.041 297.809 151C297.395 151.694 296.988 152.392 296.584 153.092Z" fill="#89C5CC"/>
<path fill-rule="evenodd" clip-rule="evenodd" d="M258.634 175.084C258.579 175.006 258.226 174.462 258.404 174.497C258.042 174.426 258.902 175.097 258 174.685C258.428 175.09 258.181 175.615 258.175 176.16C258.166 177.043 258.314 177.92 258.48 178.785C258.743 180.152 259.135 181.481 259.704 182.753C260.944 185.524 263.049 188.192 265.548 189.924C266.782 190.78 267.991 191.071 269.398 191.465C270.287 191.714 270.357 192.173 270.829 193.036C271.811 194.832 272.776 196.622 273.642 198.479C274.676 200.696 275.68 202.916 276.628 205.173C279.818 212.773 282.415 220.647 283.779 228.797C283.812 223.994 282.701 219.048 281.3 214.471C280.279 211.136 278.95 207.921 277.533 204.739C277.19 203.968 276.669 202.976 276.523 202.125C276.421 201.529 276.733 200.955 276.876 200.327C277.434 197.881 277.394 195.14 276.904 192.681C276.365 189.969 274.804 188.71 272.164 188.326C271.199 188.185 269.972 188.237 269.086 187.825C268.122 187.377 267.724 185.903 267.176 184.957C265.703 182.417 263.952 179.98 261.942 177.839C261.386 177.246 260.788 176.699 260.153 176.192C259.752 175.872 258.906 175.478 258.634 175.084Z" fill="#89C5CC"/>
<path fill-rule="evenodd" clip-rule="evenodd" d="M288.808 225.717C288.972 224.607 288.111 223.61 286.989 223.61H280.113C278.991 223.61 278.13 224.607 278.294 225.717L278.589 227.716C278.951 230.177 281.063 232 283.551 232V232C286.038 232 288.15 230.177 288.513 227.716L288.808 225.717Z" fill="#C1DEE2"/>
</g>
<defs>
<clipPath id="clip0_5:4281">
<rect width="124.855" height="109.091" fill="white" transform="translate(47 77.877)"/>
</clipPath>
<clipPath id="clip1_5:4281">
<rect width="36" height="47" fill="white" transform="translate(51 121)"/>
</clipPath>
<clipPath id="clip2_5:4281">
<rect width="64" height="19" fill="white" transform="matrix(-1 0 0 1 81 135.1)"/>
</clipPath>
<clipPath id="clip3_5:4281">
<rect width="36" height="39" fill="white" transform="translate(51 176)"/>
</clipPath>
</defs>
</svg>
